<svg width="472" height="171" viewBox="0 0 472 171" fill="none" xmlns="http://www.w3.org/2000/svg">
<path fill-rule="evenodd" clip-rule="evenodd" d="M150.978 70.3174C133.395 92.6113 118.42 116.84 106.306 142.415C119.177 123.57 133.732 105.988 149.8 89.751C144.163 119.448 120.944 143.004 91.4153 149.145C94.7804 117.345 102.184 86.1335 113.457 56.184C94.6121 49.1172 75.7394 42.0224 56.8387 34.8996C44.556 67.7095 36.2274 101.781 32.021 136.358C13.1763 122.729 0.977783 100.603 0.977783 75.6175C0.977783 34.1425 34.6289 0.575439 76.0199 0.575439C114.466 0.575439 146.098 29.3472 150.557 66.5317C140.518 55.7072 130.479 44.8828 120.439 34.0583C118.308 36.0213 116.205 37.9843 114.13 39.9473C126.356 49.594 138.583 59.2406 150.81 68.8873C150.866 69.336 150.922 69.7846 150.978 70.2333V70.3174ZM97.4725 138.966C105.549 111.877 116.654 85.797 130.535 61.1475C113.036 51.2204 95.5095 41.3214 77.9548 31.4504C76.4966 33.9181 75.0944 36.4139 73.7484 38.9377C88.611 44.5463 103.474 50.1268 118.336 55.6792C108.241 82.6001 101.258 110.531 97.4725 138.966ZM146.771 68.5508C130.899 56.0998 115.083 43.6209 99.3233 31.1139C97.5286 33.3573 95.7619 35.6287 94.0232 37.9282C107.82 45.7241 121.645 53.5199 135.498 61.3158C121.365 86.3859 110.176 112.886 102.015 140.396C114.214 114.905 129.189 90.7605 146.771 68.5508Z" fill="#3ACBA3"/>
<path d="M87.1943 98.4816C84.5863 93.7704 80.5482 90.4894 75.6687 89.8164C65.9099 88.4704 56.4876 97.9768 54.7209 110.933C53.9637 116.064 54.5527 121.028 56.1511 125.15C53.5431 120.439 52.3653 114.298 53.2907 107.82C55.0574 94.78 64.4797 85.3576 74.2386 86.7037C80.1275 87.545 84.8387 92.0879 87.1943 98.4816Z" fill="#3ACBA3"/>
<path d="M44.4719 90.0035L59.3626 40.4521L102.015 55.5952L61.1292 44.1538L44.4719 90.0035Z" fill="#3ACBA3"/>
<path d="M85.2483 170.576L92.9778 111.576L82.4757 166.931L51.9778 166.592L85.2483 170.576Z" fill="#3ACBA3"/>
<path d="M226.754 48.8203C230.29 48.8203 233.132 49.9123 235.282 52.0963C237.466 54.2456 238.558 57.2616 238.558 61.1443V78.0443H231.278V62.1323C231.278 59.879 230.706 58.163 229.562 56.9843C228.418 55.771 226.858 55.1643 224.882 55.1643C222.906 55.1643 221.328 55.771 220.15 56.9843C219.006 58.163 218.434 59.879 218.434 62.1323V78.0443H211.154V62.1323C211.154 59.879 210.582 58.163 209.438 56.9843C208.294 55.771 206.734 55.1643 204.758 55.1643C202.747 55.1643 201.152 55.771 199.974 56.9843C198.83 58.163 198.258 59.879 198.258 62.1323V78.0443H190.978V49.2363H198.258V52.7203C199.194 51.507 200.39 50.5536 201.846 49.8603C203.336 49.167 204.966 48.8203 206.734 48.8203C208.987 48.8203 210.998 49.3056 212.766 50.2763C214.534 51.2123 215.903 52.5643 216.874 54.3323C217.81 52.6683 219.162 51.3336 220.93 50.3283C222.732 49.323 224.674 48.8203 226.754 48.8203Z" fill="#221E29"/>
<path d="M273.026 49.2363L255.19 91.6683H247.442L253.682 77.3163L242.138 49.2363H250.302L257.738 69.3603L265.278 49.2363H273.026Z" fill="#221E29"/>
<path d="M325.117 48.8203C328.653 48.8203 331.496 49.9123 333.645 52.0963C335.829 54.2456 336.921 57.2616 336.921 61.1443V78.0443H329.641V62.1323C329.641 59.879 329.069 58.163 327.925 56.9843C326.781 55.771 325.221 55.1643 323.245 55.1643C321.269 55.1643 319.692 55.771 318.513 56.9843C317.369 58.163 316.797 59.879 316.797 62.1323V78.0443H309.517V62.1323C309.517 59.879 308.945 58.163 307.801 56.9843C306.657 55.771 305.097 55.1643 303.121 55.1643C301.11 55.1643 299.516 55.771 298.337 56.9843C297.193 58.163 296.621 59.879 296.621 62.1323V78.0443H289.341V49.2363H296.621V52.7203C297.557 51.507 298.753 50.5536 300.209 49.8603C301.7 49.167 303.329 48.8203 305.097 48.8203C307.35 48.8203 309.361 49.3056 311.129 50.2763C312.897 51.2123 314.266 52.5643 315.237 54.3323C316.173 52.6683 317.525 51.3336 319.293 50.3283C321.096 49.323 323.037 48.8203 325.117 48.8203Z" fill="#221E29"/>
<path d="M356.621 78.5123C353.848 78.5123 351.352 77.9056 349.133 76.6923C346.915 75.4443 345.164 73.6936 343.881 71.4403C342.633 69.187 342.009 66.587 342.009 63.6403C342.009 60.6936 342.651 58.0936 343.933 55.8403C345.251 53.587 347.036 51.8536 349.289 50.6403C351.543 49.3923 354.056 48.7683 356.829 48.7683C359.603 48.7683 362.116 49.3923 364.369 50.6403C366.623 51.8536 368.391 53.587 369.673 55.8403C370.991 58.0936 371.649 60.6936 371.649 63.6403C371.649 66.587 370.973 69.187 369.621 71.4403C368.304 73.6936 366.501 75.4443 364.213 76.6923C361.96 77.9056 359.429 78.5123 356.621 78.5123ZM356.621 72.1683C357.939 72.1683 359.169 71.8563 360.313 71.2323C361.492 70.5736 362.428 69.603 363.121 68.3203C363.815 67.0376 364.161 65.4776 364.161 63.6403C364.161 60.9016 363.433 58.8043 361.977 57.3483C360.556 55.8576 358.805 55.1123 356.725 55.1123C354.645 55.1123 352.895 55.8576 351.473 57.3483C350.087 58.8043 349.393 60.9016 349.393 63.6403C349.393 66.379 350.069 68.4936 351.421 69.9843C352.808 71.4403 354.541 72.1683 356.621 72.1683Z" fill="#221E29"/>
<path d="M392.954 48.8203C396.386 48.8203 399.159 49.9123 401.273 52.0963C403.388 54.2456 404.446 57.2616 404.446 61.1443V78.0443H397.166V62.1323C397.166 59.8443 396.594 58.0936 395.45 56.8803C394.306 55.6323 392.746 55.0083 390.77 55.0083C388.759 55.0083 387.164 55.6323 385.986 56.8803C384.842 58.0936 384.27 59.8443 384.27 62.1323V78.0443H376.99V49.2363H384.27V52.8243C385.24 51.5763 386.471 50.6056 387.962 49.9123C389.487 49.1843 391.151 48.8203 392.954 48.8203Z" fill="#221E29"/>
<path d="M438.148 63.0163C438.148 64.0563 438.079 64.9923 437.94 65.8243H416.88C417.054 67.9043 417.782 69.5336 419.064 70.7123C420.347 71.891 421.924 72.4803 423.796 72.4803C426.5 72.4803 428.424 71.319 429.568 68.9963H437.42C436.588 71.7696 434.994 74.0576 432.636 75.8603C430.279 77.6283 427.384 78.5123 423.952 78.5123C421.179 78.5123 418.683 77.9056 416.464 76.6923C414.28 75.4443 412.564 73.6936 411.316 71.4403C410.103 69.187 409.496 66.587 409.496 63.6403C409.496 60.659 410.103 58.0416 411.316 55.7883C412.53 53.535 414.228 51.8016 416.412 50.5883C418.596 49.375 421.11 48.7683 423.952 48.7683C426.691 48.7683 429.135 49.3576 431.284 50.5363C433.468 51.715 435.15 53.3963 436.328 55.5803C437.542 57.7296 438.148 60.2083 438.148 63.0163ZM430.608 60.9363C430.574 59.0643 429.898 57.5736 428.58 56.4643C427.263 55.3203 425.651 54.7483 423.744 54.7483C421.942 54.7483 420.416 55.303 419.168 56.4123C417.955 57.487 417.21 58.995 416.932 60.9363H430.608Z" fill="#221E29"/>
<path d="M471.022 49.2363L453.186 91.6683H445.438L451.678 77.3163L440.134 49.2363H448.298L455.734 69.3603L463.274 49.2363H471.022Z" fill="#221E29"/>
<path d="M212.482 96.2839C214.607 96.2839 216.316 96.9403 217.608 98.2531C218.921 99.545 219.577 101.358 219.577 103.692V113.85H215.201V104.285C215.201 102.931 214.857 101.9 214.17 101.191C213.482 100.462 212.544 100.097 211.357 100.097C210.169 100.097 209.221 100.462 208.512 101.191C207.825 101.9 207.481 102.931 207.481 104.285V113.85H203.105V104.285C203.105 102.931 202.761 101.9 202.074 101.191C201.386 100.462 200.448 100.097 199.261 100.097C198.052 100.097 197.094 100.462 196.385 101.191C195.697 101.9 195.354 102.931 195.354 104.285V113.85H190.978V96.534H195.354V98.6281C195.916 97.8988 196.635 97.3258 197.51 96.9091C198.406 96.4923 199.386 96.2839 200.448 96.2839C201.803 96.2839 203.011 96.5757 204.074 97.1591C205.137 97.7217 205.96 98.5344 206.543 99.5971C207.106 98.5969 207.918 97.7946 208.981 97.1904C210.065 96.5861 211.232 96.2839 212.482 96.2839Z" fill="#221E29"/>
<path d="M222.604 105.129C222.604 103.379 222.948 101.827 223.636 100.472C224.344 99.1178 225.292 98.0759 226.48 97.3466C227.688 96.6173 229.032 96.2527 230.512 96.2527C231.804 96.2527 232.929 96.5132 233.887 97.0341C234.867 97.555 235.648 98.2114 236.232 99.0032V96.534H240.639V113.85H236.232V111.318C235.669 112.131 234.888 112.808 233.887 113.35C232.908 113.871 231.772 114.131 230.481 114.131C229.022 114.131 227.688 113.756 226.48 113.006C225.292 112.256 224.344 111.203 223.636 109.849C222.948 108.474 222.604 106.901 222.604 105.129ZM236.232 105.192C236.232 104.129 236.023 103.223 235.607 102.473C235.19 101.702 234.627 101.118 233.919 100.722C233.21 100.306 232.45 100.097 231.637 100.097C230.824 100.097 230.074 100.295 229.387 100.691C228.699 101.087 228.136 101.67 227.699 102.441C227.282 103.191 227.074 104.087 227.074 105.129C227.074 106.171 227.282 107.088 227.699 107.88C228.136 108.651 228.699 109.245 229.387 109.661C230.095 110.078 230.845 110.287 231.637 110.287C232.45 110.287 233.21 110.089 233.919 109.693C234.627 109.276 235.19 108.693 235.607 107.942C236.023 107.171 236.232 106.255 236.232 105.192Z" fill="#221E29"/>
<path d="M254.508 96.2839C256.571 96.2839 258.238 96.9403 259.509 98.2531C260.78 99.545 261.416 101.358 261.416 103.692V113.85H257.04V104.285C257.04 102.91 256.696 101.858 256.008 101.129C255.321 100.378 254.383 100.003 253.195 100.003C251.987 100.003 251.028 100.378 250.32 101.129C249.632 101.858 249.288 102.91 249.288 104.285V113.85H244.912V96.534H249.288V98.6906C249.872 97.9405 250.611 97.3571 251.507 96.9403C252.424 96.5027 253.424 96.2839 254.508 96.2839Z" fill="#221E29"/>
<path d="M264.452 105.129C264.452 103.379 264.795 101.827 265.483 100.472C266.191 99.1178 267.14 98.0759 268.327 97.3466C269.536 96.6173 270.88 96.2527 272.359 96.2527C273.651 96.2527 274.776 96.5132 275.735 97.0341C276.714 97.555 277.496 98.2114 278.079 99.0032V96.534H282.486V113.85H278.079V111.318C277.516 112.131 276.735 112.808 275.735 113.35C274.756 113.871 273.62 114.131 272.328 114.131C270.869 114.131 269.536 113.756 268.327 113.006C267.14 112.256 266.191 111.203 265.483 109.849C264.795 108.474 264.452 106.901 264.452 105.129ZM278.079 105.192C278.079 104.129 277.871 103.223 277.454 102.473C277.037 101.702 276.475 101.118 275.766 100.722C275.058 100.306 274.297 100.097 273.484 100.097C272.672 100.097 271.922 100.295 271.234 100.691C270.546 101.087 269.984 101.67 269.546 102.441C269.129 103.191 268.921 104.087 268.921 105.129C268.921 106.171 269.129 107.088 269.546 107.88C269.984 108.651 270.546 109.245 271.234 109.661C271.943 110.078 272.693 110.287 273.484 110.287C274.297 110.287 275.058 110.089 275.766 109.693C276.475 109.276 277.037 108.693 277.454 107.942C277.871 107.171 278.079 106.255 278.079 105.192Z" fill="#221E29"/>
<path d="M293.542 96.2527C294.834 96.2527 295.97 96.5132 296.949 97.0341C297.929 97.5342 298.7 98.1906 299.262 99.0032V96.534H303.669V113.975C303.669 115.579 303.346 117.007 302.7 118.257C302.054 119.528 301.086 120.528 299.794 121.257C298.502 122.008 296.939 122.383 295.105 122.383C292.646 122.383 290.625 121.81 289.042 120.664C287.479 119.517 286.593 117.955 286.385 115.975H290.729C290.959 116.767 291.448 117.392 292.198 117.85C292.969 118.33 293.897 118.569 294.98 118.569C296.251 118.569 297.283 118.184 298.075 117.413C298.866 116.663 299.262 115.517 299.262 113.975V111.287C298.7 112.099 297.918 112.777 296.918 113.318C295.939 113.86 294.813 114.131 293.542 114.131C292.084 114.131 290.75 113.756 289.542 113.006C288.333 112.256 287.375 111.203 286.666 109.849C285.979 108.474 285.635 106.901 285.635 105.129C285.635 103.379 285.979 101.827 286.666 100.472C287.375 99.1178 288.323 98.0759 289.51 97.3466C290.719 96.6173 292.063 96.2527 293.542 96.2527ZM299.262 105.192C299.262 104.129 299.054 103.223 298.637 102.473C298.22 101.702 297.658 101.118 296.949 100.722C296.241 100.306 295.48 100.097 294.668 100.097C293.855 100.097 293.105 100.295 292.417 100.691C291.73 101.087 291.167 101.67 290.729 102.441C290.313 103.191 290.104 104.087 290.104 105.129C290.104 106.171 290.313 107.088 290.729 107.88C291.167 108.651 291.73 109.245 292.417 109.661C293.126 110.078 293.876 110.287 294.668 110.287C295.48 110.287 296.241 110.089 296.949 109.693C297.658 109.276 298.22 108.693 298.637 107.942C299.054 107.171 299.262 106.255 299.262 105.192Z" fill="#221E29"/>
<path d="M324.04 104.817C324.04 105.442 323.998 106.005 323.915 106.505H311.256C311.36 107.755 311.798 108.734 312.569 109.443C313.34 110.151 314.288 110.505 315.413 110.505C317.039 110.505 318.195 109.807 318.883 108.411H323.602C323.102 110.078 322.144 111.453 320.727 112.537C319.31 113.6 317.57 114.131 315.507 114.131C313.84 114.131 312.34 113.766 311.006 113.037C309.693 112.287 308.662 111.235 307.912 109.88C307.183 108.526 306.818 106.963 306.818 105.192C306.818 103.4 307.183 101.827 307.912 100.472C308.641 99.1178 309.662 98.0759 310.975 97.3466C312.288 96.6173 313.798 96.2527 315.507 96.2527C317.153 96.2527 318.622 96.6069 319.914 97.3154C321.227 98.0239 322.237 99.0345 322.946 100.347C323.675 101.639 324.04 103.129 324.04 104.817ZM319.508 103.567C319.487 102.441 319.081 101.545 318.289 100.879C317.497 100.191 316.528 99.8471 315.382 99.8471C314.298 99.8471 313.382 100.181 312.631 100.847C311.902 101.493 311.454 102.4 311.287 103.567H319.508Z" fill="#221E29"/>
<path d="M331.61 99.222C332.172 98.3052 332.902 97.5863 333.798 97.0653C334.714 96.5444 335.756 96.2839 336.923 96.2839V100.879H335.767C334.391 100.879 333.35 101.202 332.641 101.847C331.953 102.493 331.61 103.619 331.61 105.223V113.85H327.234V96.534H331.61V99.222Z" fill="#221E29"/>
</svg>
