<svg width="472" height="171" viewBox="0 0 472 171" fill="none" xmlns="http://www.w3.org/2000/svg">
<path fill-rule="evenodd" clip-rule="evenodd" d="M150.978 70.0237C133.395 92.3176 118.42 116.546 106.306 142.121C119.177 123.277 133.732 105.694 149.8 89.4573C144.163 119.154 120.944 142.71 91.4153 148.852C94.7804 117.051 102.184 85.8398 113.457 55.8903C94.6121 48.8235 75.7394 41.7287 56.8387 34.6059C44.556 67.4158 36.2274 101.488 32.021 136.064C13.1763 122.435 0.977783 100.31 0.977783 75.3238C0.977783 33.8488 34.6289 0.281738 76.0199 0.281738C114.466 0.281738 146.098 29.0535 150.557 66.238C140.518 55.4135 130.479 44.5891 120.439 33.7646C118.308 35.7276 116.205 37.6906 114.13 39.6536C126.356 49.3003 138.583 58.9469 150.81 68.5936C150.866 69.0423 150.922 69.4909 150.978 69.9396V70.0237ZM97.4725 138.672C105.549 111.583 116.654 85.5033 130.535 60.8538C113.036 50.9267 95.5095 41.0277 77.9548 31.1567C76.4966 33.6244 75.0944 36.1202 73.7484 38.644C88.611 44.2526 103.474 49.8331 118.336 55.3855C108.241 82.3064 101.258 110.237 97.4725 138.672ZM146.771 68.2571C130.899 55.8061 115.083 43.3272 99.3233 30.8202C97.5286 33.0636 95.7619 35.335 94.0232 37.6345C107.82 45.4304 121.645 53.2262 135.498 61.0221C121.365 86.0922 110.176 112.592 102.015 140.102C114.214 114.612 129.189 90.4668 146.771 68.2571Z" fill="white"/>
<path d="M87.1943 98.1876C84.5863 93.4765 80.5482 90.1955 75.6687 89.5225C65.9099 88.1764 56.4876 97.6829 54.7209 110.639C53.9637 115.77 54.5527 120.734 56.1511 124.856C53.5431 120.145 52.3653 114.004 53.2907 107.526C55.0574 94.486 64.4797 85.0637 74.2386 86.4097C80.1275 87.251 84.8387 91.7939 87.1943 98.1876Z" fill="white"/>
<path d="M44.4719 89.7098L59.3626 40.1584L102.015 55.3015L61.1292 43.8601L44.4719 89.7098Z" fill="white"/>
<path d="M85.2483 170.282L92.9778 111.282L82.4757 166.637L51.9778 166.298L85.2483 170.282Z" fill="white"/>
<path d="M226.754 48.5266C230.29 48.5266 233.132 49.6186 235.282 51.8026C237.466 53.9519 238.558 56.9679 238.558 60.8506V77.7506H231.278V61.8386C231.278 59.5853 230.706 57.8693 229.562 56.6906C228.418 55.4773 226.858 54.8706 224.882 54.8706C222.906 54.8706 221.328 55.4773 220.15 56.6906C219.006 57.8693 218.434 59.5853 218.434 61.8386V77.7506H211.154V61.8386C211.154 59.5853 210.582 57.8693 209.438 56.6906C208.294 55.4773 206.734 54.8706 204.758 54.8706C202.747 54.8706 201.152 55.4773 199.974 56.6906C198.83 57.8693 198.258 59.5853 198.258 61.8386V77.7506H190.978V48.9426H198.258V52.4266C199.194 51.2133 200.39 50.2599 201.846 49.5666C203.336 48.8733 204.966 48.5266 206.734 48.5266C208.987 48.5266 210.998 49.0119 212.766 49.9826C214.534 50.9186 215.903 52.2706 216.874 54.0386C217.81 52.3746 219.162 51.0399 220.93 50.0346C222.732 49.0293 224.674 48.5266 226.754 48.5266Z" fill="white"/>
<path d="M273.026 48.9426L255.19 91.3746H247.442L253.682 77.0226L242.138 48.9426H250.302L257.738 69.0666L265.278 48.9426H273.026Z" fill="white"/>
<path d="M325.117 48.5266C328.653 48.5266 331.496 49.6186 333.645 51.8026C335.829 53.9519 336.921 56.9679 336.921 60.8506V77.7506H329.641V61.8386C329.641 59.5853 329.069 57.8693 327.925 56.6906C326.781 55.4773 325.221 54.8706 323.245 54.8706C321.269 54.8706 319.692 55.4773 318.513 56.6906C317.369 57.8693 316.797 59.5853 316.797 61.8386V77.7506H309.517V61.8386C309.517 59.5853 308.945 57.8693 307.801 56.6906C306.657 55.4773 305.097 54.8706 303.121 54.8706C301.11 54.8706 299.516 55.4773 298.337 56.6906C297.193 57.8693 296.621 59.5853 296.621 61.8386V77.7506H289.341V48.9426H296.621V52.4266C297.557 51.2133 298.753 50.2599 300.209 49.5666C301.7 48.8733 303.329 48.5266 305.097 48.5266C307.35 48.5266 309.361 49.0119 311.129 49.9826C312.897 50.9186 314.266 52.2706 315.237 54.0386C316.173 52.3746 317.525 51.0399 319.293 50.0346C321.096 49.0293 323.037 48.5266 325.117 48.5266Z" fill="white"/>
<path d="M356.621 78.2186C353.848 78.2186 351.352 77.6119 349.133 76.3986C346.915 75.1506 345.164 73.3999 343.881 71.1466C342.633 68.8933 342.009 66.2933 342.009 63.3466C342.009 60.3999 342.651 57.7999 343.933 55.5466C345.251 53.2933 347.036 51.5599 349.289 50.3466C351.543 49.0986 354.056 48.4746 356.829 48.4746C359.603 48.4746 362.116 49.0986 364.369 50.3466C366.623 51.5599 368.391 53.2933 369.673 55.5466C370.991 57.7999 371.649 60.3999 371.649 63.3466C371.649 66.2933 370.973 68.8933 369.621 71.1466C368.304 73.3999 366.501 75.1506 364.213 76.3986C361.96 77.6119 359.429 78.2186 356.621 78.2186ZM356.621 71.8746C357.939 71.8746 359.169 71.5626 360.313 70.9386C361.492 70.2799 362.428 69.3093 363.121 68.0266C363.815 66.7439 364.161 65.1839 364.161 63.3466C364.161 60.6079 363.433 58.5106 361.977 57.0546C360.556 55.5639 358.805 54.8186 356.725 54.8186C354.645 54.8186 352.895 55.5639 351.473 57.0546C350.087 58.5106 349.393 60.6079 349.393 63.3466C349.393 66.0853 350.069 68.1999 351.421 69.6906C352.808 71.1466 354.541 71.8746 356.621 71.8746Z" fill="white"/>
<path d="M392.954 48.5266C396.386 48.5266 399.159 49.6186 401.273 51.8026C403.388 53.9519 404.446 56.9679 404.446 60.8506V77.7506H397.166V61.8386C397.166 59.5506 396.594 57.7999 395.45 56.5866C394.306 55.3386 392.746 54.7146 390.77 54.7146C388.759 54.7146 387.164 55.3386 385.986 56.5866C384.842 57.7999 384.27 59.5506 384.27 61.8386V77.7506H376.99V48.9426H384.27V52.5306C385.24 51.2826 386.471 50.3119 387.962 49.6186C389.487 48.8906 391.151 48.5266 392.954 48.5266Z" fill="white"/>
<path d="M438.148 62.7226C438.148 63.7626 438.079 64.6986 437.94 65.5306H416.88C417.054 67.6106 417.782 69.2399 419.064 70.4186C420.347 71.5973 421.924 72.1866 423.796 72.1866C426.5 72.1866 428.424 71.0253 429.568 68.7026H437.42C436.588 71.4759 434.994 73.7639 432.636 75.5666C430.279 77.3346 427.384 78.2186 423.952 78.2186C421.179 78.2186 418.683 77.6119 416.464 76.3986C414.28 75.1506 412.564 73.3999 411.316 71.1466C410.103 68.8933 409.496 66.2933 409.496 63.3466C409.496 60.3653 410.103 57.7479 411.316 55.4946C412.53 53.2413 414.228 51.5079 416.412 50.2946C418.596 49.0813 421.11 48.4746 423.952 48.4746C426.691 48.4746 429.135 49.0639 431.284 50.2426C433.468 51.4213 435.15 53.1026 436.328 55.2866C437.542 57.4359 438.148 59.9146 438.148 62.7226ZM430.608 60.6426C430.574 58.7706 429.898 57.2799 428.58 56.1706C427.263 55.0266 425.651 54.4546 423.744 54.4546C421.942 54.4546 420.416 55.0093 419.168 56.1186C417.955 57.1933 417.21 58.7013 416.932 60.6426H430.608Z" fill="white"/>
<path d="M471.022 48.9426L453.186 91.3746H445.438L451.678 77.0226L440.134 48.9426H448.298L455.734 69.0666L463.274 48.9426H471.022Z" fill="white"/>
<path d="M212.482 95.9902C214.607 95.9902 216.316 96.6466 217.608 97.9594C218.921 99.2513 219.577 101.064 219.577 103.398V113.556H215.201V103.992C215.201 102.637 214.857 101.606 214.17 100.897C213.482 100.168 212.544 99.8035 211.357 99.8035C210.169 99.8035 209.221 100.168 208.512 100.897C207.825 101.606 207.481 102.637 207.481 103.992V113.556H203.105V103.992C203.105 102.637 202.761 101.606 202.074 100.897C201.386 100.168 200.448 99.8035 199.261 99.8035C198.052 99.8035 197.094 100.168 196.385 100.897C195.697 101.606 195.354 102.637 195.354 103.992V113.556H190.978V96.2403H195.354V98.3344C195.916 97.6051 196.635 97.0321 197.51 96.6154C198.406 96.1986 199.386 95.9902 200.448 95.9902C201.803 95.9902 203.011 96.282 204.074 96.8654C205.137 97.428 205.96 98.2407 206.543 99.3034C207.106 98.3032 207.918 97.5009 208.981 96.8967C210.065 96.2924 211.232 95.9902 212.482 95.9902Z" fill="white"/>
<path d="M222.604 104.836C222.604 103.085 222.948 101.533 223.636 100.179C224.344 98.8241 225.292 97.7822 226.48 97.0529C227.688 96.3236 229.032 95.959 230.512 95.959C231.804 95.959 232.929 96.2195 233.887 96.7404C234.867 97.2613 235.648 97.9177 236.232 98.7095V96.2403H240.639V113.556H236.232V111.024C235.669 111.837 234.888 112.514 233.887 113.056C232.908 113.577 231.772 113.837 230.481 113.837C229.022 113.837 227.688 113.462 226.48 112.712C225.292 111.962 224.344 110.91 223.636 109.555C222.948 108.18 222.604 106.607 222.604 104.836ZM236.232 104.898C236.232 103.835 236.023 102.929 235.607 102.179C235.19 101.408 234.627 100.824 233.919 100.429C233.21 100.012 232.45 99.8035 231.637 99.8035C230.824 99.8035 230.074 100.001 229.387 100.397C228.699 100.793 228.136 101.377 227.699 102.148C227.282 102.898 227.074 103.794 227.074 104.836C227.074 105.878 227.282 106.794 227.699 107.586C228.136 108.357 228.699 108.951 229.387 109.368C230.095 109.784 230.845 109.993 231.637 109.993C232.45 109.993 233.21 109.795 233.919 109.399C234.627 108.982 235.19 108.399 235.607 107.649C236.023 106.878 236.232 105.961 236.232 104.898Z" fill="white"/>
<path d="M254.508 95.9902C256.571 95.9902 258.238 96.6466 259.509 97.9594C260.78 99.2513 261.416 101.064 261.416 103.398V113.556H257.04V103.992C257.04 102.616 256.696 101.564 256.008 100.835C255.321 100.085 254.383 99.7097 253.195 99.7097C251.987 99.7097 251.028 100.085 250.32 100.835C249.632 101.564 249.288 102.616 249.288 103.992V113.556H244.912V96.2403H249.288V98.3969C249.872 97.6468 250.611 97.0634 251.507 96.6466C252.424 96.209 253.424 95.9902 254.508 95.9902Z" fill="white"/>
<path d="M264.452 104.836C264.452 103.085 264.795 101.533 265.483 100.179C266.191 98.8241 267.14 97.7822 268.327 97.0529C269.536 96.3236 270.88 95.959 272.359 95.959C273.651 95.959 274.776 96.2195 275.735 96.7404C276.714 97.2613 277.496 97.9177 278.079 98.7095V96.2403H282.486V113.556H278.079V111.024C277.516 111.837 276.735 112.514 275.735 113.056C274.756 113.577 273.62 113.837 272.328 113.837C270.869 113.837 269.536 113.462 268.327 112.712C267.14 111.962 266.191 110.91 265.483 109.555C264.795 108.18 264.452 106.607 264.452 104.836ZM278.079 104.898C278.079 103.835 277.871 102.929 277.454 102.179C277.037 101.408 276.475 100.824 275.766 100.429C275.058 100.012 274.297 99.8035 273.484 99.8035C272.672 99.8035 271.922 100.001 271.234 100.397C270.546 100.793 269.984 101.377 269.546 102.148C269.129 102.898 268.921 103.794 268.921 104.836C268.921 105.878 269.129 106.794 269.546 107.586C269.984 108.357 270.546 108.951 271.234 109.368C271.943 109.784 272.693 109.993 273.484 109.993C274.297 109.993 275.058 109.795 275.766 109.399C276.475 108.982 277.037 108.399 277.454 107.649C277.871 106.878 278.079 105.961 278.079 104.898Z" fill="white"/>
<path d="M293.542 95.959C294.834 95.959 295.97 96.2195 296.949 96.7404C297.929 97.2405 298.7 97.8968 299.262 98.7095V96.2403H303.669V113.681C303.669 115.286 303.346 116.713 302.7 117.963C302.054 119.234 301.086 120.234 299.794 120.964C298.502 121.714 296.939 122.089 295.105 122.089C292.646 122.089 290.625 121.516 289.042 120.37C287.479 119.224 286.593 117.661 286.385 115.681H290.729C290.959 116.473 291.448 117.098 292.198 117.557C292.969 118.036 293.897 118.276 294.98 118.276C296.251 118.276 297.283 117.89 298.075 117.119C298.866 116.369 299.262 115.223 299.262 113.681V110.993C298.7 111.806 297.918 112.483 296.918 113.025C295.939 113.566 294.813 113.837 293.542 113.837C292.084 113.837 290.75 113.462 289.542 112.712C288.333 111.962 287.375 110.91 286.666 109.555C285.979 108.18 285.635 106.607 285.635 104.836C285.635 103.085 285.979 101.533 286.666 100.179C287.375 98.8241 288.323 97.7822 289.51 97.0529C290.719 96.3236 292.063 95.959 293.542 95.959ZM299.262 104.898C299.262 103.835 299.054 102.929 298.637 102.179C298.22 101.408 297.658 100.824 296.949 100.429C296.241 100.012 295.48 99.8035 294.668 99.8035C293.855 99.8035 293.105 100.001 292.417 100.397C291.73 100.793 291.167 101.377 290.729 102.148C290.313 102.898 290.104 103.794 290.104 104.836C290.104 105.878 290.313 106.794 290.729 107.586C291.167 108.357 291.73 108.951 292.417 109.368C293.126 109.784 293.876 109.993 294.668 109.993C295.48 109.993 296.241 109.795 296.949 109.399C297.658 108.982 298.22 108.399 298.637 107.649C299.054 106.878 299.262 105.961 299.262 104.898Z" fill="white"/>
<path d="M324.04 104.523C324.04 105.148 323.998 105.711 323.915 106.211H311.256C311.36 107.461 311.798 108.44 312.569 109.149C313.34 109.857 314.288 110.212 315.413 110.212C317.039 110.212 318.195 109.514 318.883 108.118H323.602C323.102 109.784 322.144 111.16 320.727 112.243C319.31 113.306 317.57 113.837 315.507 113.837C313.84 113.837 312.34 113.473 311.006 112.743C309.693 111.993 308.662 110.941 307.912 109.587C307.183 108.232 306.818 106.669 306.818 104.898C306.818 103.106 307.183 101.533 307.912 100.179C308.641 98.8241 309.662 97.7822 310.975 97.0529C312.288 96.3236 313.798 95.959 315.507 95.959C317.153 95.959 318.622 96.3132 319.914 97.0217C321.227 97.7302 322.237 98.7408 322.946 100.054C323.675 101.345 324.04 102.835 324.04 104.523ZM319.508 103.273C319.487 102.148 319.081 101.252 318.289 100.585C317.497 99.8972 316.528 99.5534 315.382 99.5534C314.298 99.5534 313.382 99.8868 312.631 100.554C311.902 101.2 311.454 102.106 311.287 103.273H319.508Z" fill="white"/>
<path d="M331.61 98.9283C332.172 98.0115 332.902 97.2926 333.798 96.7716C334.714 96.2507 335.756 95.9902 336.923 95.9902V100.585H335.767C334.391 100.585 333.35 100.908 332.641 101.554C331.953 102.2 331.61 103.325 331.61 104.929V113.556H327.234V96.2403H331.61V98.9283Z" fill="white"/>
</svg>
