<svg width="45" height="50" viewBox="0 0 45 50" fill="none" xmlns="http://www.w3.org/2000/svg">
<path fill-rule="evenodd" clip-rule="evenodd" d="M44.5588 20.5123C39.3874 27.0694 34.9831 34.1955 31.42 41.7175C35.2058 36.175 39.4864 31.0036 44.2124 26.2281C42.5546 34.9625 35.7254 41.8907 27.0404 43.697C28.0302 34.344 30.2076 25.1641 33.5232 16.3554C27.9807 14.277 22.4299 12.1903 16.8708 10.0953C13.2583 19.7453 10.8087 29.7664 9.57152 39.936C4.02897 35.9275 0.441162 29.42 0.441162 22.0712C0.441162 9.87265 10.3386 0 22.5124 0C33.8201 0 43.1237 8.46227 44.4351 19.3989C41.4824 16.2152 38.5296 13.0316 35.5769 9.84791C34.9501 10.4253 34.3315 11.0026 33.7212 11.58C37.3172 14.4172 40.9133 17.2545 44.5093 20.0917C44.5258 20.2237 44.5423 20.3556 44.5588 20.4876V20.5123ZM28.8219 40.703C31.1973 32.7356 34.4635 25.0651 38.5461 17.8153C33.3995 14.8956 28.2446 11.9841 23.0815 9.08086C22.6526 9.80667 22.2402 10.5407 21.8443 11.283C26.2156 12.9326 30.587 14.5739 34.9583 16.207C31.9891 24.1249 29.9354 32.3397 28.8219 40.703ZM43.3216 19.9927C38.6534 16.3307 34.0016 12.6604 29.3663 8.98189C28.8384 9.64171 28.3188 10.3098 27.8075 10.9861C31.8654 13.279 35.9316 15.5719 40.006 17.8648C35.8491 25.2384 32.5582 33.0326 30.1581 41.1237C33.7459 33.6264 38.1502 26.525 43.3216 19.9927Z" fill="#3ACBA3"/>
<path d="M25.7989 28.7958C25.0319 27.4102 23.8442 26.4452 22.409 26.2472C19.5388 25.8513 16.7675 28.6473 16.2479 32.4578C16.0252 33.9672 16.1984 35.4271 16.6686 36.6395C15.9015 35.2539 15.5551 33.4476 15.8273 31.5423C16.3469 27.7071 19.1182 24.9358 21.9884 25.3317C23.7204 25.5791 25.1061 26.9153 25.7989 28.7958Z" fill="#3ACBA3"/>
<path d="M13.2335 26.3023L17.6131 11.7284L30.158 16.1822L18.1327 12.8171L13.2335 26.3023Z" fill="#3ACBA3"/>
<path d="M25.2266 50L27.5 32.647L24.4111 48.9279L15.4412 48.8282L25.2266 50Z" fill="#3ACBA3"/>
</svg>
